# Blender 5.0.1
# www.blender.org
mtllib custom_auv_ventral_fin.mtl
o VentralFin
v -0.075000 0.000000 -0.005000
v -0.075000 0.000000 0.005000
v 0.075000 0.000000 -0.005000
v 0.075000 0.000000 0.005000
v -0.040000 0.005000 -0.120000
v -0.040000 -0.005000 -0.120000
v 0.040000 0.005000 -0.120000
v 0.040000 -0.005000 -0.120000
vn 0.0848 0.9963 0.0140
vn 0.0124 0.9998 -0.0165
vn 0.9959 0.0630 0.0645
vn 0.0150 0.9997 -0.0200
vn 0.4623 0.5891 0.6627
vn 0.4782 0.6082 0.6336
vn 0.5502 0.7010 0.4537
vn 0.5721 0.7101 0.4104
s 1
f 2//2 3//3 1//1
f 6//6 7//7 5//5
f 1//1 6//6 5//5
f 3//3 8//8 7//7
f 3//3 5//5 1//1
f 4//4 6//6 2//2
f 2//2 4//4 3//3
f 6//6 8//8 7//7
f 1//1 2//2 6//6
f 3//3 4//4 8//8
f 3//3 7//7 5//5
f 4//4 8//8 6//6
